<svg version="1.1" viewBox="0.0 0.0 960.0 960.0" fill="none" stroke="none" stroke-linecap="square" stroke-miterlimit="10" xmlns:xlink="http://www.w3.org/1999/xlink" xmlns="http://www.w3.org/2000/svg"><clipPath id="p.0"><path d="m0 0l960.0 0l0 960.0l-960.0 0l0 -960.0z" clip-rule="nonzero"/></clipPath><g clip-path="url(#p.0)"><path fill="#000000" fill-opacity="0.0" d="m0 0l960.0 0l0 960.0l-960.0 0z" fill-rule="evenodd"/><path fill="#ffffff" d="m15.511811 170.3443l0 0c0 -85.51162 69.32087 -154.83249 154.83249 -154.83249l619.3114 0l0 0c41.064148 0 80.44635 16.31266 109.48309 45.34939c29.036743 29.036728 45.349365 68.41897 45.349365 109.4831l0 619.3114c0 85.5116 -69.32086 154.83246 -154.83246 154.83246l-619.3114 0c-85.51162 0 -154.83249 -69.32086 -154.83249 -154.83246z" fill-rule="evenodd"/><path stroke="#84cc16" stroke-width="24.0" stroke-linejoin="round" stroke-linecap="butt" d="m15.511811 170.3443l0 0c0 -85.51162 69.32087 -154.83249 154.83249 -154.83249l619.3114 0l0 0c41.064148 0 80.44635 16.31266 109.48309 45.34939c29.036743 29.036728 45.349365 68.41897 45.349365 109.4831l0 619.3114c0 85.5116 -69.32086 154.83246 -154.83246 154.83246l-619.3114 0c-85.51162 0 -154.83249 -69.32086 -154.83249 -154.83246z" fill-rule="evenodd"/><path fill="#262626" d="m273.66016 384.0l0 -237.89061l-84.968735 0l0 -48.4375l227.54686 0l0 48.4375l-84.765625 0l0 237.89061l-57.8125 0zm292.57812 0l0 -283.98438l57.8125 0l0 235.73436l143.75 0l0 48.25l-201.5625 0z" fill-rule="nonzero"/><path fill="#262626" d="m164.47267 577.6719l105.67186 0q35.734375 0 54.484375 5.46875q25.203125 7.421875 43.171875 26.375q17.96875 18.9375 27.34375 46.375q9.375 27.4375 9.375 67.671875q0 35.359375 -8.796875 60.9375q-10.734375 31.25 -30.65625 50.59375q-15.046875 14.640625 -40.625 22.84375q-19.140625 6.0625 -51.171875 6.0625l-108.79686 0l0 -286.32812zm57.8125 48.4375l0 189.64062l43.17186 0q24.21875 0 34.953125 -2.734375q14.0625 -3.515625 23.34375 -11.90625q9.28125 -8.40625 15.140625 -27.640625q5.859375 -19.234375 5.859375 -52.4375q0 -33.203125 -5.859375 -50.96875q-5.859375 -17.78125 -16.40625 -27.734375q-10.546875 -9.96875 -26.765625 -13.484375q-12.109375 -2.734375 -47.45311 -2.734375l-25.984375 0z" fill-rule="nonzero"/><path fill="#84cc16" d="m564.8633 864.0l0 -286.32812l121.6875 0q45.890625 0 66.6875 7.71875q20.8125 7.703125 33.3125 27.4375q12.5 19.71875 12.5 45.109375q0 32.234375 -18.953125 53.234375q-18.9375 20.984375 -56.640625 26.453125q18.75 10.9375 30.953125 24.03125q12.21875 13.078125 32.921875 46.484375l34.953125 55.859375l-69.140625 0l-41.796875 -62.3125q-22.265625 -33.390625 -30.46875 -42.078125q-8.203125 -8.703125 -17.390625 -11.921875q-9.171875 -3.21875 -29.09375 -3.21875l-11.71875 0l0 119.53125l-57.8125 0zm57.8125 -165.23438l42.78125 0q41.59375 0 51.9375 -3.515625q10.359375 -3.515625 16.21875 -12.109375q5.859375 -8.59375 5.859375 -21.484375q0 -14.453125 -7.71875 -23.34375q-7.703125 -8.890625 -21.765625 -11.234375q-7.03125 -0.96875 -42.1875 -0.96875l-45.125 0l0 72.65625z" fill-rule="nonzero"/></g></svg>