<svg version="1.1" viewBox="0.0 0.0 960.0 960.0" fill="none" stroke="none" stroke-linecap="square" stroke-miterlimit="10" xmlns:xlink="http://www.w3.org/1999/xlink" xmlns="http://www.w3.org/2000/svg"><clipPath id="p.0"><path d="m0 0l960.0 0l0 960.0l-960.0 0l0 -960.0z" clip-rule="nonzero"/></clipPath><g clip-path="url(#p.0)"><path fill="#000000" fill-opacity="0.0" d="m0 0l960.0 0l0 960.0l-960.0 0z" fill-rule="evenodd"/><path fill="#ffffff" d="m62.72441 206.22845l0 0c0 -75.60219 61.28768 -136.88986 136.88988 -136.88986l560.7715 0l0 0c36.30542 0 71.1239 14.422279 96.795715 40.094116c25.671875 25.671837 40.094116 60.490303 40.094116 96.79575l0 547.5431c0 75.60217 -61.28766 136.8899 -136.88983 136.8899l-560.7715 0c-75.602196 0 -136.88988 -61.28772 -136.88988 -136.8899z" fill-rule="evenodd"/><path stroke="#84cc16" stroke-width="12.0" stroke-linejoin="round" stroke-linecap="butt" d="m62.72441 206.22845l0 0c0 -75.60219 61.28768 -136.88986 136.88988 -136.88986l560.7715 0l0 0c36.30542 0 71.1239 14.422279 96.795715 40.094116c25.671875 25.671837 40.094116 60.490303 40.094116 96.79575l0 547.5431c0 75.60217 -61.28766 136.8899 -136.88983 136.8899l-560.7715 0c-75.602196 0 -136.88988 -61.28772 -136.88988 -136.8899z" fill-rule="evenodd"/><path fill="#262626" d="m303.91534 397.68l0 -202.99998l-72.5 0l0 -41.328125l194.17188 0l0 41.328125l-72.328125 0l0 202.99998l-49.34375 0zm249.67249 0l0 -242.32811l49.328125 0l0 201.15623l122.65631 0l0 41.171875l-171.98444 0z" fill-rule="nonzero"/><path fill="#262626" d="m210.7597 563.35187l90.15625 0q30.5 0 46.5 4.671875q21.5 6.328125 36.828125 22.5q15.34375 16.15625 23.34375 39.578125q8.0 23.40625 8.0 57.75q0 30.15625 -7.5 52.0q-9.171875 26.65625 -26.171875 43.15625q-12.828125 12.5 -34.65625 19.5q-16.34375 5.171875 -43.671875 5.171875l-92.828125 0l0 -244.32812zm49.328125 41.328125l0 161.82812l36.828125 0q20.671875 0 29.84375 -2.328125q12.0 -3.0 19.90625 -10.15625q7.921875 -7.171875 12.921875 -23.59375q5.0 -16.421875 5.0 -44.75q0 -28.328125 -5.0 -43.484375q-5.0 -15.171875 -14.0 -23.671875q-9.0 -8.5 -22.828125 -11.5q-10.34375 -2.34375 -40.5 -2.34375l-22.171875 0z" fill-rule="nonzero"/><path fill="#84cc16" d="m552.41595 807.68l0 -244.32812l103.828186 0q39.171875 0 56.921875 6.59375q17.75 6.578125 28.40625 23.40625q10.671875 16.828125 10.671875 38.5q0 27.5 -16.171875 45.421875q-16.15625 17.90625 -48.328125 22.578125q16.0 9.328125 26.40625 20.5q10.421875 11.15625 28.09375 39.65625l29.828125 47.671875l-59.0 0l-35.65625 -53.171875q-19.0 -28.5 -26.0 -35.90625q-7.0 -7.421875 -14.84375 -10.171875q-7.828125 -2.75 -24.828186 -2.75l-10.0 0l0 102.0l-49.328125 0zm49.328125 -141.0l36.50006 0q35.5 0 44.328125 -3.0q8.84375 -3.0 13.84375 -10.328125q5.0 -7.34375 5.0 -18.328125q0 -12.34375 -6.59375 -19.921875q-6.578125 -7.578125 -18.578125 -9.578125q-6.0 -0.84375 -36.0 -0.84375l-38.50006 0l0 62.0z" fill-rule="nonzero"/></g></svg>